<svg width="151" height="151" viewBox="0 0 151 151" fill="none" xmlns="http://www.w3.org/2000/svg">
<path fill-rule="evenodd" clip-rule="evenodd" d="M2.48273 50.6249H34.5776V151H2.79739V50.6249H2.48273ZM18.5301 0.594727C27.6551 0.594727 36.7801 9.71973 36.7801 18.8447C36.7801 27.9697 27.6551 37.0947 18.5301 37.0947C7.20256 37.0947 0.280151 27.9697 0.280151 18.8447C0.280151 9.71973 7.20256 0.594727 18.5301 0.594727ZM84.6077 100.97V151H52.8276V50.6249H82.4051V64.1551C86.8103 61.9525 91.5302 48.1077 114.185 48.1077C150.685 48.1077 150.685 75.4827 150.685 105.06V150.685H118.905V96.2499C118.905 82.7197 114.5 75.7973 102.858 75.7973C87.125 75.7973 84.6077 89.6421 84.6077 100.97Z" fill="#203864"/>
</svg>
