<svg width="161" height="161" viewBox="0 0 161 161" fill="none" xmlns="http://www.w3.org/2000/svg">
<path d="M160.661 80.6603V132.269C160.661 139.873 157.64 147.165 152.263 152.542C146.886 157.919 139.594 160.94 131.99 160.94H28.7729C21.1686 160.94 13.8766 157.919 8.49949 152.542C3.12238 147.165 0.101562 139.873 0.101562 132.269V29.0518C0.101562 21.4475 3.12231 14.1555 8.49949 8.77834C13.8767 3.40123 21.1686 0.380414 28.7729 0.380414H80.3814C82.4306 0.380414 84.3236 1.4735 85.3476 3.24755C86.3716 5.0216 86.3716 7.2078 85.3476 8.98183C84.3236 10.7558 82.4306 11.849 80.3814 11.849H28.7729C24.2098 11.849 19.835 13.6614 16.6081 16.8869C13.3825 20.1138 11.5701 24.4886 11.5701 29.0518V132.269C11.5701 136.832 13.3825 141.207 16.6081 144.434C19.8349 147.659 24.2098 149.472 28.7729 149.472H131.99C136.553 149.472 140.928 147.659 144.155 144.434C147.38 141.207 149.193 136.832 149.193 132.269V80.6603C149.193 78.611 150.286 76.718 152.06 75.694C153.834 74.6701 156.02 74.6701 157.794 75.694C159.568 76.718 160.661 78.6111 160.661 80.6603ZM114.787 11.849H141.107L76.3097 76.5873C75.2243 77.6638 74.6138 79.1293 74.6138 80.6589C74.6138 82.1886 75.2243 83.6541 76.3097 84.7306C77.3862 85.816 78.8518 86.4266 80.3814 86.4266C81.9111 86.4266 83.3765 85.816 84.4531 84.7306L149.191 19.9923V46.2546C149.191 47.7752 149.796 49.2344 150.871 50.3096C151.946 51.3847 153.405 51.9889 154.926 51.9889C156.446 51.9889 157.905 51.3847 158.981 50.3096C160.056 49.2344 160.66 47.7752 160.66 46.2546V6.11469C160.669 4.59026 160.07 3.12595 158.997 2.04303C157.914 0.970422 156.45 0.37137 154.926 0.380349H114.786C112.736 0.380349 110.843 1.47343 109.819 3.24749C108.795 5.02154 108.795 7.20774 109.819 8.98176C110.843 10.7558 112.737 11.8489 114.786 11.8489L114.787 11.849Z" fill="white"/>
</svg>
