{"buffers":[{"uri":"Cad Bike complete v24 v1.gltf.bin","byteLength":9177600}],"asset":{"version":"2.0","generator":"gltfpack 0.16"},"bufferViews":[{"buffer":0,"byteOffset":0,"byteLength":2775816,"byteStride":12,"target":34962},{"buffer":0,"byteOffset":2775816,"byteLength":2775816,"byteStride":12,"target":34962},{"buffer":0,"byteOffset":5551632,"byteLength":3625968,"target":34963}],"accessors":[{"bufferView":0,"byteOffset":0,"componentType":5126,"count":231318,"type":"VEC3","min":[-0.742212772,-1.94295502,-0.0385507718],"max":[0.742212772,1.56039155,2.38976216]},{"bufferView":1,"byteOffset":0,"componentType":5126,"count":231318,"type":"VEC3"},{"bufferView":2,"byteOffset":0,"componentType":5125,"count":906492,"type":"SCALAR"}],"materials":[{"pbrMetallicRoughness":{"baseColorFactor":[0.627451003,0.627451003,0.627451003,1],"metallicFactor":0,"roughnessFactor":0},"doubleSided":true}],"meshes":[{"primitives":[{"attributes":{"POSITION":0,"NORMAL":1},"mode":4,"indices":2,"material":0}]}],"nodes":[{"mesh":0},{"children":[0]}],"scenes":[{"nodes":[1]}]}