<svg id="footer-logo" xmlns="http://www.w3.org/2000/svg" xmlns:xlink="http://www.w3.org/1999/xlink" width="98.261" height="115.498" viewBox="0 0 98.261 115.498">
  <defs>
    <clipPath id="clip-path">
      <rect id="Rectangle_5462" data-name="Rectangle 5462" width="98.261" height="115.498" fill="#fff"/>
    </clipPath>
  </defs>
  <g id="Group_4497" data-name="Group 4497" clip-path="url(#clip-path)">
    <path id="Path_8146" data-name="Path 8146" d="M24.107,85.455V84.2c0-14.869.025-29.739-.027-44.607-.008-2.105.931-3.235,2.3-3.633a3.522,3.522,0,0,1,3.893,1.773c1.83,2.78,3.631,5.579,5.476,8.35,2.44,3.664,4.912,7.307,7.368,10.96q1.712,2.548,3.414,5.1a2.729,2.729,0,0,1,.182,3.011,3.376,3.376,0,0,1-5.75-.006Q35.884,57.464,30.785,49.8c-.043-.065-.132-.1-.32-.233v1.085q0,20.011-.007,40.024c0,1.5-.29,2.94-1.9,3.562a3.567,3.567,0,0,1-3.36-.322c-2.128-1.43-4.305-2.815-6.28-4.44A50.3,50.3,0,0,1,7.68,75.785,56.633,56.633,0,0,1,1.725,60.974a60.85,60.85,0,0,1-1.34-8.035,50.362,50.362,0,0,1-.369-7.218,48.156,48.156,0,0,1,1.9-12.406,37.19,37.19,0,0,1,5.728-11.9,59.872,59.872,0,0,1,6-7.06A50.126,50.126,0,0,1,27.847,4.848,50.675,50.675,0,0,1,51.109.032a50.267,50.267,0,0,1,16.063,3.4,54.292,54.292,0,0,1,14.2,7.892A42.261,42.261,0,0,1,91.906,23.2a44.991,44.991,0,0,1,4.97,13.115,62.172,62.172,0,0,1,1.34,10.486,64.445,64.445,0,0,1-.4,9.209,46.968,46.968,0,0,1-2.3,10.53A43.676,43.676,0,0,1,88.5,80.051c-1.476,1.868-2.95,3.75-4.578,5.48a36.864,36.864,0,0,1-8.155,6.509c-1.391.82-2.9,1.432-4.317,2.217-2.315,1.285-4.553-.9-4.5-3.2.021-.954.171-1.908.172-2.862q.019-18.517.008-37.033v-.544l-.168-.08c-.739,1.123-1.489,2.239-2.217,3.369-4.049,6.286-8.11,12.565-12.121,18.876-.621.977-1.133,1.921-2.39,2.223a3.393,3.393,0,0,1-3.486-1.273,2.615,2.615,0,0,1-.064-3.145c2.484-3.807,4.9-7.658,7.349-11.49q5.794-9.066,11.593-18.129c.69-1.079,1.368-2.166,2.072-3.236a3.3,3.3,0,0,1,3.718-1.283,2.873,2.873,0,0,1,2.065,2.828c.015,6.39.027,12.781,0,19.171-.04,9.059-.117,18.118-.177,27.178,0,.092.019.185.048.447A10.2,10.2,0,0,0,74.72,85.2c2.2-1.97,4.509-3.84,6.519-5.989a35.937,35.937,0,0,0,5.517-8.088,46.011,46.011,0,0,0,4.255-12.4,67.251,67.251,0,0,0,.791-7.043,33.375,33.375,0,0,0,.176-4.358,47.634,47.634,0,0,0-3.358-16.354,36.662,36.662,0,0,0-5.171-8.922,37.989,37.989,0,0,0-10.358-8.9,48.85,48.85,0,0,0-10.15-4.588A54.154,54.154,0,0,0,52.961,6.32a34.956,34.956,0,0,0-12.222.757,51.812,51.812,0,0,0-12.112,4.3,48.529,48.529,0,0,0-9.306,6.16,35.489,35.489,0,0,0-9.212,11.744A40.508,40.508,0,0,0,6.865,39.818a48.979,48.979,0,0,0-.483,10.739A45.561,45.561,0,0,0,8.31,61.546a50.993,50.993,0,0,0,3.831,9.489,41.224,41.224,0,0,0,5.711,8.4c1.744,1.925,3.654,3.7,5.5,5.528a4.792,4.792,0,0,0,.754.488" transform="translate(0 0)" fill="#fff"/>
    <path id="Path_8147" data-name="Path 8147" d="M49.291,112.987c1.729-.126,1.748-.133,2.306,1.251.945,2.344,1.864,4.7,2.851,7.191.6-1.442,1.165-2.773,1.711-4.112.506-1.24,1.032-2.474,1.47-3.739.159-.459.324-.7.821-.646.517.057,1.1-.2,1.4.558.741,1.9,1.55,3.775,2.319,5.666.286.7.537,1.421.871,2.31.622-1.5,1.195-2.858,1.742-4.222.42-1.045.8-2.107,1.212-3.154.516-1.3.59-1.33,2.214-1.037-.422,1.086-.828,2.162-1.255,3.23q-1.732,4.325-3.487,8.641a2.362,2.362,0,0,1-.429.532,3.122,3.122,0,0,1-.516-.67c-1.2-2.992-2.388-5.992-3.58-8.989-.022-.055-.079-.095-.224-.262-.551,1.33-1.074,2.58-1.586,3.834-.772,1.889-1.532,3.782-2.315,5.665-.069.169-.27.284-.409.424-.135-.147-.328-.27-.4-.442q-2.336-5.853-4.647-11.715a2.468,2.468,0,0,1-.071-.315" transform="translate(-4.405 -10.089)" fill="#fff"/>
    <path id="Path_8148" data-name="Path 8148" d="M39.072,112.732c4.194.107,6.852,2.692,6.749,6.445-.117,4.308-2.8,6.36-6.775,6.395a6.233,6.233,0,0,1-6.612-6.58c.087-3.6,2.763-6.176,6.639-6.26M34.3,119.069A4.6,4.6,0,0,0,39.07,123.9a4.5,4.5,0,0,0,4.893-4.629c.056-2.919-1.923-4.748-4.8-4.84a4.58,4.58,0,0,0-4.867,4.634" transform="translate(-2.898 -10.074)" fill="#fff"/>
    <path id="Path_8149" data-name="Path 8149" d="M95.262,125.29c-2.429.9-2.752-1.121-3.656-2.285a15.506,15.506,0,0,0-1.77-2.319,7.991,7.991,0,0,0-2.307-.922v5.567a1.478,1.478,0,0,1-.333.125c-1.574.072-1.574.071-1.574-1.521V112.91c1.935.18,3.821-.349,5.612.578a3.384,3.384,0,0,1,.4,5.614c-.2.136-.382.286-.423.318l4.052,5.87m-7.708-10.75v3.795c1.192.035,2.477.276,3.181-.8a2.406,2.406,0,0,0-.021-2.125c-.695-1.142-1.973-1-3.16-.869" transform="translate(-7.652 -10.09)" fill="#fff"/>
    <path id="Path_8150" data-name="Path 8150" d="M80.384,119.862c-1.442,0-2.81.021-4.177-.009-.6-.014-.839.2-.817.812.033.993.008,1.988.008,3.128h5.488c-.037.622-.066,1.1-.1,1.625H73.767V112.986h6.8v1.625H75.4c0,1.116.005,2.135,0,3.154,0,.6.39.606.823.6,1.366-.006,2.732,0,4.163,0Z" transform="translate(-6.592 -10.097)" fill="#fff"/>
    <path id="Path_8151" data-name="Path 8151" d="M20.783,112.838c1.79.1,3.5.076,5.173.308a3.165,3.165,0,0,1,2.617,3.447,3.127,3.127,0,0,1-2.842,3.249,10.715,10.715,0,0,1-2.289.172c-.967-.06-1.058.466-1.035,1.2.022.69,0,1.381,0,2.073v2.11H20.783Zm1.628,3.505c0,2.012,0,2.012,2,2.01.186,0,.373.012.558,0a1.877,1.877,0,0,0,1.658-2.422c-.27-.891-.729-1.405-2.478-1.331-1.962.084-1.721-.215-1.737,1.748" transform="translate(-1.857 -10.084)" fill="#fff"/>
  </g>
</svg>
